<svg version="1.1" preserveAspectRatio="none" xmlns="http://www.w3.org/2000/svg" width="500" height="500" viewBox="0 0 500 500"><rect width="100%" height="100%" fill="#0F222D" fill-opacity="1"/><svg viewBox="198.9546 -86.4887 336.7608 367.3797" width="305.24644230478714" height="333" x="97.3768px" y="83.5px" xmlns="http://www.w3.org/2000/svg" xmlns:xlink="http://www.w3.org/1999/xlink" preserveAspectRatio="none"><defs></defs><style>.aDFQBjvS2colors-3 {fill:#21303A;fill-opacity:1;}.aDFQBjvS2colors-4 {fill:#51819E;fill-opacity:1;}.aDFQBjvS2colors-5 {fill:#064B75;fill-opacity:1;}.aDFQBjvS2colors-6 {fill:#ACA58C;fill-opacity:1;}.aDFQBjvS2colors-7 {fill:#3E5563;fill-opacity:1;}.companyName {fill:#EBE7D9;fill-opacity:1;}.icon1 {fill:#FFF5D0;fill-opacity:1;}.icon2 {fill:#BA3521;fill-opacity:1;}.icon3 {fill:#F55139;fill-opacity:1;}.icon3-str {stroke:#F55139;stroke-opacity:1;}.text {fill:#EBE7D9;fill-opacity:1;}</style><g opacity="1" transform="rotate(0 305.8779 260.091)">
<svg width="122.9143" height="20.8" x="305.8779" y="260.091" version="1.1" preserveAspectRatio="none" viewBox="1.72 -31 186 31.48">
  <g transform="matrix(1 0 0 1 0 0)" class="text"><path id="id-6izo4zJp9" d="M7.92 0.36Q6.08 0.36 4.42-0.28Q2.76-0.92 1.72-2.16L1.72-2.16L3.32-4.32Q4.32-3.36 5.42-2.84Q6.52-2.32 7.60-2.32L7.60-2.32Q8.92-2.32 9.76-2.84Q10.60-3.36 10.60-4.44L10.60-4.44Q10.60-5.28 10.08-5.80Q9.56-6.32 8.90-6.56Q8.24-6.80 6.68-7.28L6.68-7.28Q2.44-8.64 2.44-12.12L2.44-12.12Q2.44-14.20 3.98-15.68Q5.52-17.16 8.28-17.16L8.28-17.16Q10.04-17.16 11.40-16.72Q12.76-16.28 13.92-15.32L13.92-15.32L12.44-13.04Q11.80-13.72 10.82-14.12Q9.84-14.52 8.96-14.56L8.96-14.56Q7.84-14.56 7.04-14.02Q6.24-13.48 6.24-12.56L6.24-12.56Q6.24-11.80 6.76-11.30Q7.28-10.80 7.84-10.58Q8.40-10.36 10.04-9.84L10.04-9.84Q12.08-9.16 13.22-8.08Q14.36-7 14.36-5.16L14.36-5.16Q14.36-2.76 12.68-1.20Q11 0.36 7.92 0.36L7.92 0.36Z M21.96-16.56L25.68-16.56L25.68 0L21.96 0L21.96-16.56ZM21.68-22.52Q21.68-23.40 22.36-24Q23.04-24.60 23.92-24.60L23.92-24.60Q24.80-24.60 25.46-24Q26.12-23.40 26.12-22.52L26.12-22.52Q26.12-21.64 25.46-21.04Q24.80-20.44 23.92-20.44L23.92-20.44Q23.04-20.44 22.36-21.04Q21.68-21.64 21.68-22.52L21.68-22.52Z M55.80-17.24Q58.20-17.24 59.62-15.88Q61.04-14.52 61.12-12.28L61.12-12.28L61.12 0L57.40 0L57.40-10.92Q57.28-13.84 54.76-14L54.76-14Q53.32-14 52.18-13.14Q51.04-12.28 50.40-10.88Q49.76-9.48 49.72-7.88L49.72-7.88L49.72 0L45.96 0L45.96-10.92Q45.84-13.84 43.24-14L43.24-14Q41.84-14 40.70-13.14Q39.56-12.28 38.92-10.86Q38.28-9.44 38.28-7.84L38.28-7.84L38.28 0L34.56 0L34.56-16.56L37.92-16.56L38.20-13.44Q39.16-15.24 40.82-16.24Q42.48-17.24 44.60-17.24L44.60-17.24Q46.60-17.24 47.96-16.30Q49.32-15.36 49.72-13.72L49.72-13.72Q50.76-15.36 52.36-16.30Q53.96-17.24 55.80-17.24L55.80-17.24Z M83.32-16.56L73.92-3.08L83.16-3.08L83.16 0L67.84 0L77.24-13.52L71.52-13.52Q70.20-13.52 69.36-14.30Q68.52-15.08 68.52-16.56L68.52-16.56L68.52-18.16L71.36-18.16L71.36-17.64Q71.36-17 71.66-16.78Q71.96-16.56 72.72-16.56L72.72-16.56L83.32-16.56Z M98.64-2.80Q100.72-2.80 102.68-4.24L102.68-4.24L104.40-1.48Q103.08-0.60 101.54-0.10Q100 0.40 98.56 0.40L98.56 0.40Q95.80 0.40 93.74-0.74Q91.68-1.88 90.56-3.88Q89.44-5.88 89.44-8.40L89.44-8.40Q89.44-10.84 90.66-12.86Q91.88-14.88 94-16.06Q96.12-17.24 98.64-17.24L98.64-17.24Q101.88-17.24 104.06-15.34Q106.24-13.44 107.04-10.04L107.04-10.04L93.92-5.44Q94.64-4.20 95.86-3.50Q97.08-2.80 98.64-2.80L98.64-2.80ZM98.36-14.28Q96.08-14.28 94.60-12.68Q93.12-11.08 93.12-8.60L93.12-8.60Q93.12-8 93.16-7.68L93.16-7.68L102.80-11.24Q102.20-12.60 101.10-13.44Q100-14.28 98.36-14.28L98.36-14.28Z M112.20-2.12Q112.20-3 112.84-3.64Q113.48-4.28 114.32-4.28L114.32-4.28Q115.08-4.28 115.74-3.64Q116.40-3 116.40-2.12L116.40-2.12Q116.40-1.20 115.76-0.60Q115.12 0 114.32 0L114.32 0Q113.48 0 112.84-0.60Q112.20-1.20 112.20-2.12L112.20-2.12Z M136.80-31L140.52-31L140.52 0L136.76 0L136.76-2.60Q135.56-1.20 133.82-0.40Q132.08 0.40 130 0.40L130 0.40Q127.68 0.40 125.80-0.72Q123.92-1.84 122.86-3.86Q121.80-5.88 121.80-8.52L121.80-8.52Q121.80-11.20 122.92-13.18Q124.04-15.16 126.00-16.20Q127.96-17.24 130.44-17.24L130.44-17.24Q132.32-17.24 134.06-16.46Q135.80-15.68 136.80-14.32L136.80-14.32L136.80-31ZM131.16-2.80Q133.32-2.80 134.82-3.96Q136.32-5.12 136.76-7.08L136.76-7.08L136.76-10.20Q136.28-12 134.72-13.14Q133.16-14.28 131.16-14.28L131.16-14.28Q129.64-14.28 128.36-13.54Q127.08-12.80 126.32-11.50Q125.56-10.20 125.56-8.56L125.56-8.56Q125.56-6.96 126.32-5.64Q127.08-4.32 128.36-3.56Q129.64-2.80 131.16-2.80L131.16-2.80Z M157.12-2.80Q159.20-2.80 161.16-4.24L161.16-4.24L162.88-1.48Q161.56-0.60 160.02-0.10Q158.48 0.40 157.04 0.40L157.04 0.40Q154.28 0.40 152.22-0.74Q150.16-1.88 149.04-3.88Q147.92-5.88 147.92-8.40L147.92-8.40Q147.92-10.84 149.14-12.86Q150.36-14.88 152.48-16.06Q154.60-17.24 157.12-17.24L157.12-17.24Q160.36-17.24 162.54-15.34Q164.72-13.44 165.52-10.04L165.52-10.04L152.40-5.44Q153.12-4.20 154.34-3.50Q155.56-2.80 157.12-2.80L157.12-2.80ZM156.84-14.28Q154.56-14.28 153.08-12.68Q151.60-11.08 151.60-8.60L151.60-8.60Q151.60-8 151.64-7.68L151.64-7.68L161.28-11.24Q160.68-12.60 159.58-13.44Q158.48-14.28 156.84-14.28L156.84-14.28Z M183.56-16.56L187.72-16.56L178.88 0.48L178.68 0.48L169.48-16.56L173.92-16.56L178.92-6L183.56-16.56Z"/></g>
</svg>
</g><g opacity="1" transform="rotate(0 198.9546 200.091)">
<svg width="336.7608" height="40" x="198.9546" y="200.091" version="1.1" preserveAspectRatio="none" viewBox="2.4609 -32.4023 276.5039 32.831999999999994">
  <g transform="matrix(1 0 0 1 0 0)" class="companyName"><path id="id-D6z1nYkh9" d="M2.46-4.06L5.76-9.08Q7.42-8.14 9.13-7.39Q10.84-6.64 12.68-6.12Q14.51-5.61 16.53-5.33Q18.55-5.06 20.84-5.06L20.84-5.06Q23.59-5.06 25.53-5.42Q27.46-5.78 28.68-6.42Q29.90-7.05 30.46-7.93Q31.02-8.81 31.02-9.84L31.02-9.84Q31.02-11.50 29.63-12.47Q28.24-13.44 25.35-13.44L25.35-13.44Q24.08-13.44 22.68-13.27Q21.27-13.11 19.83-12.91Q18.40-12.71 17.00-12.55Q15.61-12.38 14.38-12.38L14.38-12.38Q12.32-12.38 10.44-12.91Q8.55-13.44 7.10-14.49Q5.64-15.55 4.79-17.13Q3.93-18.71 3.93-20.82L3.93-20.82Q3.93-22.07 4.27-23.30Q4.61-24.53 5.36-25.65Q6.11-26.78 7.30-27.74Q8.50-28.71 10.19-29.41Q11.88-30.12 14.09-30.52Q16.31-30.92 19.14-30.92L19.14-30.92Q21.19-30.92 23.26-30.69Q25.33-30.47 27.29-30.06Q29.26-29.65 31.07-29.07Q32.89-28.50 34.45-27.79L34.45-27.79L31.74-22.79Q30.45-23.36 28.96-23.84Q27.48-24.32 25.86-24.67Q24.24-25.02 22.51-25.22Q20.78-25.43 18.98-25.43L18.98-25.43Q16.43-25.43 14.78-25.06Q13.13-24.69 12.15-24.11Q11.17-23.54 10.79-22.82Q10.41-22.11 10.41-21.41L10.41-21.41Q10.41-20.04 11.64-19.17Q12.87-18.30 15.39-18.30L15.39-18.30Q16.41-18.30 17.72-18.45Q19.04-18.59 20.50-18.77Q21.95-18.95 23.47-19.09Q24.98-19.24 26.41-19.24L26.41-19.24Q29.10-19.24 31.18-18.63Q33.26-18.03 34.67-16.90Q36.07-15.78 36.80-14.19Q37.52-12.60 37.52-10.63L37.52-10.63Q37.52-7.99 36.30-5.93Q35.08-3.87 32.82-2.45Q30.57-1.04 27.38-0.30Q24.20 0.43 20.29 0.43L20.29 0.43Q17.71 0.43 15.25 0.11Q12.79-0.21 10.54-0.81Q8.28-1.41 6.24-2.24Q4.20-3.07 2.46-4.06L2.46-4.06Z M46.66-26.19L46.66-26.19Q45.80-26.19 45.11-26.44Q44.41-26.68 43.93-27.10Q43.44-27.52 43.17-28.08Q42.91-28.63 42.91-29.26L42.91-29.26Q42.91-29.90 43.17-30.46Q43.44-31.02 43.93-31.43Q44.41-31.84 45.11-32.08Q45.80-32.32 46.66-32.32L46.66-32.32Q47.54-32.32 48.23-32.08Q48.93-31.84 49.41-31.43Q49.90-31.02 50.17-30.46Q50.43-29.90 50.43-29.26L50.43-29.26Q50.43-28.63 50.17-28.08Q49.90-27.52 49.41-27.10Q48.93-26.68 48.23-26.44Q47.54-26.19 46.66-26.19ZM43.77 0L43.77-23.05L49.55-23.05L49.55 0L43.77 0Z M57.11 0L57.11-23.05L62.89-23.05L62.89-21.09Q65.06-22.42 67.12-22.94Q69.18-23.46 71.15-23.46L71.15-23.46Q73.91-23.46 76.21-22.58Q78.52-21.70 80.16-19.92L80.16-19.92Q81.43-20.90 82.66-21.57Q83.89-22.25 85.12-22.67Q86.35-23.09 87.62-23.27Q88.89-23.46 90.23-23.46L90.23-23.46Q93.07-23.46 95.37-22.69Q97.68-21.91 99.31-20.39Q100.94-18.87 101.83-16.59Q102.71-14.32 102.71-11.33L102.71-11.33L102.71 0L96.95 0L96.95-10.39Q96.95-12.29 96.42-13.78Q95.88-15.27 94.91-16.30Q93.95-17.32 92.61-17.86Q91.27-18.40 89.67-18.40L89.67-18.40Q88.79-18.40 87.87-18.23Q86.95-18.07 86.08-17.71Q85.21-17.36 84.45-16.83Q83.69-16.29 83.13-15.57L83.13-15.57L83.13 0L77.36 0L77.36-10.39Q77.36-12.29 76.83-13.78Q76.29-15.27 75.32-16.30Q74.36-17.32 73.00-17.86Q71.64-18.40 70.02-18.40L70.02-18.40Q69.02-18.40 68.02-18.19Q67.01-17.99 66.08-17.62Q65.16-17.25 64.35-16.72Q63.54-16.19 62.89-15.53L62.89-15.53L62.89 0L57.11 0Z M106.97 0L121.09-18.24L109.28-18.24L109.28-23.05L131.82-23.05L117.60-4.80L131.04-4.80L131.04 0L106.97 0Z M135.53-11.60L135.53-11.60Q135.53-13.95 136.48-16.08Q137.44-18.22 139.24-19.86Q141.04-21.50 143.64-22.48Q146.25-23.46 149.57-23.46L149.57-23.46Q152.87-23.46 155.52-22.47Q158.16-21.48 160.01-19.77Q161.86-18.05 162.84-15.72Q163.83-13.40 163.83-10.74L163.83-10.74Q163.83-10.41 163.82-10.03Q163.81-9.65 163.77-9.34L163.77-9.34L141.97-9.34Q142.34-8.30 143.17-7.44Q144.00-6.58 145.25-5.96Q146.50-5.33 148.14-4.99Q149.79-4.65 151.78-4.65L151.78-4.65Q153.77-4.65 155.74-5.07Q157.71-5.49 159.51-6.13L159.51-6.13L161.46-1.72Q160.33-1.19 159.17-0.79Q158.01-0.39 156.75-0.13Q155.49 0.14 154.11 0.27Q152.73 0.41 151.21 0.41L151.21 0.41Q147.32 0.41 144.39-0.53Q141.46-1.46 139.49-3.09Q137.52-4.71 136.52-6.89Q135.53-9.08 135.53-11.60ZM141.97-13.85L157.70-13.85Q157.38-14.80 156.73-15.63Q156.07-16.46 155.10-17.08Q154.12-17.70 152.83-18.05Q151.54-18.40 150-18.40L150-18.40Q148.36-18.40 147.01-18.03Q145.66-17.66 144.65-17.03Q143.63-16.41 142.96-15.59Q142.29-14.77 141.97-13.85L141.97-13.85Z M170.16-3.38L170.16-3.38Q170.16-4.16 170.48-4.85Q170.80-5.55 171.41-6.06Q172.01-6.58 172.87-6.88Q173.73-7.17 174.80-7.17L174.80-7.17Q175.88-7.17 176.74-6.88Q177.60-6.58 178.19-6.06Q178.79-5.55 179.11-4.85Q179.43-4.16 179.43-3.38L179.43-3.38Q179.43-2.60 179.11-1.90Q178.79-1.21 178.19-0.70Q177.60-0.20 176.74 0.11Q175.88 0.41 174.80 0.41L174.80 0.41Q173.73 0.41 172.87 0.11Q172.01-0.20 171.41-0.70Q170.80-1.21 170.48-1.90Q170.16-2.60 170.16-3.38Z M185.02-11.43L185.02-11.43Q185.02-14.18 186.05-16.40Q187.09-18.61 188.92-20.19Q190.74-21.76 193.25-22.61Q195.76-23.46 198.69-23.46L198.69-23.46Q199.94-23.46 201.16-23.30Q202.38-23.14 203.51-22.87Q204.63-22.60 205.62-22.22Q206.60-21.84 207.36-21.39L207.36-21.39L207.36-32.40L213.14-32.40L213.14 0L207.36 0L207.36-2.17Q206.60-1.64 205.57-1.17Q204.53-0.70 203.34-0.35Q202.15 0 200.87 0.21Q199.59 0.41 198.34 0.41L198.34 0.41Q195.41 0.41 192.96-0.45Q190.51-1.31 188.75-2.87Q186.99-4.43 186.01-6.61Q185.02-8.79 185.02-11.43ZM191.09-11.43L191.09-11.43Q191.09-10.04 191.65-8.81Q192.21-7.58 193.25-6.65Q194.30-5.72 195.77-5.19Q197.25-4.65 199.08-4.65L199.08-4.65Q200.25-4.65 201.43-4.87Q202.60-5.10 203.68-5.51Q204.77-5.92 205.71-6.50Q206.66-7.09 207.36-7.81L207.36-7.81L207.36-15.80Q206.48-16.50 205.51-16.99Q204.53-17.48 203.52-17.79Q202.50-18.11 201.46-18.25Q200.43-18.40 199.45-18.40L199.45-18.40Q197.46-18.40 195.91-17.86Q194.36-17.32 193.29-16.39Q192.23-15.45 191.66-14.18Q191.09-12.91 191.09-11.43Z M219.12-11.60L219.12-11.60Q219.12-13.95 220.08-16.08Q221.04-18.22 222.83-19.86Q224.63-21.50 227.24-22.48Q229.84-23.46 233.16-23.46L233.16-23.46Q236.46-23.46 239.11-22.47Q241.76-21.48 243.60-19.77Q245.45-18.05 246.44-15.72Q247.42-13.40 247.42-10.74L247.42-10.74Q247.42-10.41 247.41-10.03Q247.40-9.65 247.36-9.34L247.36-9.34L225.57-9.34Q225.94-8.30 226.77-7.44Q227.60-6.58 228.85-5.96Q230.10-5.33 231.74-4.99Q233.38-4.65 235.37-4.65L235.37-4.65Q237.36-4.65 239.34-5.07Q241.31-5.49 243.11-6.13L243.11-6.13L245.06-1.72Q243.93-1.19 242.76-0.79Q241.60-0.39 240.34-0.13Q239.08 0.14 237.71 0.27Q236.33 0.41 234.80 0.41L234.80 0.41Q230.92 0.41 227.99-0.53Q225.06-1.46 223.09-3.09Q221.11-4.71 220.12-6.89Q219.12-9.08 219.12-11.60ZM225.57-13.85L241.29-13.85Q240.98-14.80 240.32-15.63Q239.67-16.46 238.69-17.08Q237.71-17.70 236.43-18.05Q235.14-18.40 233.59-18.40L233.59-18.40Q231.95-18.40 230.61-18.03Q229.26-17.66 228.24-17.03Q227.23-16.41 226.55-15.59Q225.88-14.77 225.57-13.85L225.57-13.85Z M261.37 0L250.45-23.07L257.15-23.07L263.14-9.20L264.71-5.31L266.27-9.20L272.27-23.07L278.96-23.07L268.05 0L261.37 0Z"/></g>
</svg>
</g><g opacity="1" transform="rotate(0 266.3068 -86.4887)">
<svg width="202.0565" height="256.5797" x="266.3068" y="-86.4887" version="1.1" preserveAspectRatio="none" viewBox="37 20 126.00001525878906 160">
  <g transform="matrix(1 0 0 1 0 0)"><g><path d="M105.8 180l4.7-14.8 6.3-7.8 3.1-21.8-69.2-51.9L37 102.4l.1 27.4 68.7 50.2z" data-color="1" class="icon1"></path><path d="M163 71.9l-.1 22.4-14 22-68.7-50.2-.1-27.4L93.9 20 163 71.9z" data-color="1" class="icon1"></path><path d="M142 103.2l-.1 22.4-14 22-68.7-50.2-.1-27.4 13.7-18.7 69.2 51.9z" data-color="1" class="icon1"></path><path d="M110.5 138.3l-4.7 16.2V180l14-22 .1-22.4-9.4 2.7z" data-color="2" class="icon2"></path><path d="M132.6 105.9l-4.7 16.2v25.5l14-22 .1-22.4-9.4 2.7z" data-color="2" class="icon2"></path><path d="M153.6 74.6l-4.7 16.2v25.5l14-22 .1-22.4-9.4 2.7z" data-color="2" class="icon2"></path><path d="M163 71.9l-7.5 2.9-6.6 16-68.8-52.1 6.3-15.9 7.5-2.8L163 71.9z" data-color="3" class="icon3"></path><path d="M142 103.2l-7.5 2.9-6.6 16L59.1 70l6.3-15.9 7.5-2.8 69.1 51.9z" data-color="3" class="icon3"></path><path d="M119.9 135.6l-7.5 2.9-6.6 16L37 102.4l6.3-15.9 7.5-2.8 69.1 51.9z" data-color="3" class="icon3"></path></g></g>
</svg>
</g></svg></svg>